<svg fill="#7f7f7f" xmlns="http://www.w3.org/2000/svg"  viewBox="0 0 64 64" width="32px" height="32px"><path d="M26.887,54l0.759,2.567C27.897,57.417,28.678,58,29.564,58h6.145L38,51h-3L26.887,54z"/><path d="M12.828,43.941l-1.279,2.352c-0.423,0.779-0.284,1.743,0.343,2.369l4.345,4.345l6.57-3.329l-2.121-2.121L12.828,43.941z"/><path d="M10,26.887l-2.567,0.759C6.583,27.897,6,28.678,6,29.564v6.145L13,38v-3L10,26.887z"/><path d="M20.059,12.828l-2.352-1.279c-0.779-0.423-1.743-0.284-2.369,0.343l-4.345,4.345l3.329,6.57l2.121-2.121L20.059,12.828z"/><path d="M37.113,10l-0.759-2.567C36.103,6.583,35.322,6,34.436,6h-6.145L26,13h3L37.113,10z"/><path d="M51.172,20.059l1.279-2.352c0.423-0.779,0.284-1.743-0.343-2.369l-4.345-4.345l-6.57,3.329l2.121,2.121L51.172,20.059z"/><path d="M54,37.113l2.567-0.759C57.417,36.103,58,35.322,58,34.436v-6.145L51,26v3L54,37.113z"/><path d="M43.941,51.172l2.352,1.279c0.779,0.423,1.743,0.284,2.369-0.343l4.345-4.345l-3.329-6.57l-2.121,2.121L43.941,51.172z"/><g><path d="M32,20c-6.627,0-12,5.373-12,12c0,6.627,5.373,12,12,12s12-5.373,12-12C44,25.373,38.627,20,32,20z M32,36 c-2.209,0-4-1.791-4-4c0-2.209,1.791-4,4-4s4,1.791,4,4C36,34.209,34.209,36,32,36z"/><path d="M32,11c-11.598,0-21,9.402-21,21c0,11.598,9.402,21,21,21s21-9.402,21-21C53,20.402,43.598,11,32,11z M32,48 c-8.837,0-16-7.164-16-16c0-8.837,7.163-16,16-16s16,7.163,16,16C48,40.836,40.837,48,32,48z"/></g></svg>